<svg xmlns="http://www.w3.org/2000/svg" x="0px" y="0px"
width="32" height="32"
viewBox="0 0 172 172"
style=" fill:#000000;"><g fill="none" fill-rule="nonzero" stroke="none" stroke-width="1" stroke-linecap="butt" stroke-linejoin="miter" stroke-miterlimit="10" stroke-dasharray="" stroke-dashoffset="0" font-family="none" font-weight="none" font-size="none" text-anchor="none" style="mix-blend-mode: normal"><path d="M0,172v-172h172v172z" fill="none"></path><g fill="#cccccc"><path d="M86,16.125c-38.52783,0 -69.875,31.34717 -69.875,69.875c0,38.52783 31.34717,69.875 69.875,69.875c38.52783,0 69.875,-31.34717 69.875,-69.875h-10.75c0,32.71192 -26.41308,59.125 -59.125,59.125c-32.71191,0 -59.125,-26.41308 -59.125,-59.125c0,-32.71191 26.41309,-59.125 59.125,-59.125c20.82813,0 39.03174,10.66602 49.55078,26.875h-28.05078v10.75h43v-43h-10.75v19.98828c-12.80761,-15.45312 -32.14502,-25.36328 -53.75,-25.36328z"></path></g></g></svg>